<?xml version="1.0" standalone="no"?>
<svg xmlns:xlink="http://www.w3.org/1999/xlink" id="wave" style="transform:rotate(0deg); transition: 0.3s" viewBox="0 0 1440 240" version="1.1" xmlns="http://www.w3.org/2000/svg"><defs><linearGradient id="sw-gradient-0" x1="0" x2="0" y1="1" y2="0"><stop stop-color="rgba(134, 189, 95, 1)" offset="0%"/><stop stop-color="rgba(22, 112, 60, 1)" offset="100%"/></linearGradient></defs><path style="transform:translate(0, 0px); opacity:1" fill="url(#sw-gradient-0)" d="M0,168L24,156C48,144,96,120,144,96C192,72,240,48,288,52C336,56,384,88,432,84C480,80,528,40,576,52C624,64,672,128,720,128C768,128,816,64,864,68C912,72,960,144,1008,168C1056,192,1104,168,1152,152C1200,136,1248,128,1296,112C1344,96,1392,72,1440,64C1488,56,1536,64,1584,80C1632,96,1680,120,1728,136C1776,152,1824,160,1872,136C1920,112,1968,56,2016,56C2064,56,2112,112,2160,116C2208,120,2256,72,2304,60C2352,48,2400,72,2448,68C2496,64,2544,32,2592,32C2640,32,2688,64,2736,72C2784,80,2832,64,2880,64C2928,64,2976,80,3024,92C3072,104,3120,112,3168,112C3216,112,3264,104,3312,100C3360,96,3408,96,3432,96L3456,96L3456,240L3432,240C3408,240,3360,240,3312,240C3264,240,3216,240,3168,240C3120,240,3072,240,3024,240C2976,240,2928,240,2880,240C2832,240,2784,240,2736,240C2688,240,2640,240,2592,240C2544,240,2496,240,2448,240C2400,240,2352,240,2304,240C2256,240,2208,240,2160,240C2112,240,2064,240,2016,240C1968,240,1920,240,1872,240C1824,240,1776,240,1728,240C1680,240,1632,240,1584,240C1536,240,1488,240,1440,240C1392,240,1344,240,1296,240C1248,240,1200,240,1152,240C1104,240,1056,240,1008,240C960,240,912,240,864,240C816,240,768,240,720,240C672,240,624,240,576,240C528,240,480,240,432,240C384,240,336,240,288,240C240,240,192,240,144,240C96,240,48,240,24,240L0,240Z"/></svg>